<?xml version="1.0" encoding="utf-8"?>
<!-- Generator: Adobe Illustrator 27.3.1, SVG Export Plug-In . SVG Version: 6.00 Build 0)  -->
<svg version="1.1" id="レイヤー_1" xmlns="http://www.w3.org/2000/svg" xmlns:xlink="http://www.w3.org/1999/xlink" x="0px"
	 y="0px" viewBox="0 0 30.1 25.7" style="enable-background:new 0 0 30.1 25.7;" xml:space="preserve">
<style type="text/css">
	.st0{fill:#F5DEB3;}
</style>
<path class="st0" d="M11,16.3h13c0.8,0,1.5-0.5,1.8-1.2l3.9-9c0.3-0.6,0.2-1.3-0.2-1.8c-0.4-0.5-1-0.9-1.6-0.9H6.5
	c-0.4,0-0.7,0.1-1.1,0.3l-1.3-3C3.9,0.4,3.6,0.2,3.2,0.2H1.3c-0.5,0-1,0.4-1,1c0,0.5,0.4,1,1,1c0,0,0,0,0,0h1.3l5.9,13.5
	c-0.5,0.6-0.7,1.3-0.7,2c0,2.1,0.5,2.9,0,4.5c0,1.8,1.4,3.3,3.2,3.3s3.3-1.4,3.3-3.2c0,0,0-0.1,0-0.1c0-0.4-0.1-0.9-0.3-1.3h7
	c-0.2,0.4-0.3,0.8-0.3,1.3c0,1.8,1.5,3.2,3.2,3.2s3.2-1.5,3.2-3.2c0-1.8-1.4-3.2-3.2-3.2c0,0,0,0,0,0c0,0,0,0,0,0v0H11.2
	c0,0,0,0,0,0c0,0-0.1,0-0.1,0c-0.7,0-1.3-0.6-1.3-1.3C9.7,16.9,10.3,16.3,11,16.3L11,16.3z M27.9,5.4l-3.9,9H10.3l-3.9-9H27.9z
	 M12.3,22.1c0,0.7-0.6,1.3-1.3,1.3s-1.3-0.6-1.3-1.3c0-0.7,0.6-1.3,1.3-1.3c0,0,0,0,0,0C11.7,20.9,12.3,21.4,12.3,22.1L12.3,22.1z
	 M25.3,22.1c0,0.7-0.6,1.3-1.3,1.3c-0.7,0-1.3-0.6-1.3-1.3c0-0.7,0.6-1.3,1.3-1.3c0,0,0,0,0,0C24.7,20.9,25.3,21.4,25.3,22.1
	L25.3,22.1z"/>
</svg>
