<svg width="232" height="232" viewBox="0 0 232 232" fill="none" xmlns="http://www.w3.org/2000/svg">
<path d="M115.8 160.363C140.411 160.363 160.363 140.411 160.363 115.8C160.363 91.1889 140.411 71.2375 115.8 71.2375C91.1889 71.2375 71.2375 91.1889 71.2375 115.8C71.2375 140.411 91.1889 160.363 115.8 160.363Z" stroke="black" stroke-miterlimit="10" stroke-linecap="round"/>
<path d="M144.55 82.1626C135.293 92.3976 127.243 99.7001 130.233 108.67C131.498 112.523 134.545 114.305 140.008 116.318C144.78 118.043 143.4 121.55 142.595 125.633C142.02 128.393 144.09 131.153 148.46 132.073C152.83 132.993 155.935 133.683 155.935 133.683" stroke="black" stroke-miterlimit="10" stroke-linecap="round"/>
<path d="M98.435 156.797C94.525 154.325 93.2026 150.472 94.3526 146.102C95.5026 141.675 96.2501 139.777 92.3401 136.327C88.4301 132.877 87.1075 128.91 88.9475 125.977C90.4425 123.62 93.5476 123.045 97.9176 123.735C104.358 124.77 106.428 122.815 109.82 121.722C113.903 120.4 117.238 121.32 118.733 123.792C120.055 125.977 119.825 129.715 116.663 132.705C112.983 136.212 110.108 139.49 111.775 145.01C113.385 150.53 105.968 158.81 105.968 158.81" stroke="black" stroke-miterlimit="10" stroke-linecap="round"/>
<path d="M72.1576 119.422C78.7126 113.04 83.9451 110.51 91.0176 110.51C98.6651 110.51 105.393 111.027 108.268 105.91C111.315 100.562 103.265 94.8124 105.048 89.1199C106.313 84.9224 110.395 83.7724 115.455 83.7724C121.608 83.7724 124.023 76.1249 120.803 71.7549" stroke="black" stroke-miterlimit="10" stroke-linecap="round"/>
</svg>
