<svg width="232" height="232" viewBox="0 0 232 232" fill="none" xmlns="http://www.w3.org/2000/svg">
<path d="M109.245 158.752C106.945 157.142 86.1875 142.595 76.125 128.795C68.765 118.675 65.66 107.29 67.3275 96.7675C68.65 88.545 72.905 81.4725 79.345 76.8725C84.98 72.8475 91.5925 70.72 98.3775 70.72C104.415 70.72 110.453 72.445 115.8 75.55C121.148 72.445 127.185 70.72 133.223 70.72C140.008 70.72 146.563 72.8475 152.255 76.8725C158.638 81.4725 162.95 88.4875 164.273 96.7675C165.998 107.29 162.835 118.675 155.475 128.795C151.048 134.832 144.148 141.732 134.833 149.322C128.105 154.785 122.643 158.58 122.413 158.752L115.858 163.295L109.245 158.752Z" stroke="black" stroke-miterlimit="10"/>
<path d="M145.527 86.245C135.12 78.8275 122.7 82.565 115.8 90.155C108.9 82.565 96.48 78.8275 86.0725 86.245C76.93 92.8 75.1475 107.865 85.44 122.01C94.64 134.66 115.8 149.265 115.8 149.265C115.8 149.265 136.96 134.603 146.16 122.01C156.453 107.865 154.67 92.8 145.527 86.245Z" stroke="black" stroke-miterlimit="10"/>
<path d="M115.8 135.005C108.9 129.657 99.4701 121.722 94.7551 115.225C91.0751 110.165 89.4076 104.76 90.0976 100.447C90.3276 98.9525 91.0176 96.8825 92.7426 95.6175C94.5251 94.3525 96.3651 93.72 98.3776 93.72C101.54 93.72 104.933 95.33 107.29 97.86L115.8 107.232L124.31 97.86C126.61 95.2725 130.06 93.72 133.223 93.72C135.235 93.72 137.075 94.3525 138.858 95.6175C140.64 96.8825 141.273 98.9525 141.503 100.447C142.193 104.817 140.525 110.222 136.845 115.225C132.073 121.78 122.7 129.715 115.8 135.005Z" stroke="black" stroke-miterlimit="10"/>
</svg>
