<svg width="250" height="250" viewBox="0 0 250 250" fill="none" xmlns="http://www.w3.org/2000/svg">
<path d="M191.23 23.6522L183.557 35.4574L181.786 34.2769L189.459 22.4717L185.445 19.8745L186.508 18.3398L196.306 24.7147L195.244 26.2493L191.23 23.6522Z" fill="black"/>
<path d="M198.787 26.4855L200.203 27.666L196.19 32.6242C197.842 32.3881 198.787 32.9783 199.613 33.5686C201.384 35.1033 201.384 36.638 200.912 37.7004C200.676 38.4087 200.203 38.8809 199.495 39.7073L195.599 44.5475L194.183 43.3669L197.724 38.999C198.551 37.9365 199.141 37.2282 199.141 36.5199C199.259 35.6935 198.787 35.1033 198.197 34.6311C197.252 33.9228 195.954 33.5686 194.655 34.6311C194.183 34.9852 193.829 35.4574 193.356 36.0477L190.051 40.0615L188.634 38.8809L198.787 26.4855Z" fill="black"/>
<path d="M206.105 39.8254L198.786 47.6168L197.488 46.4363L204.807 38.6449L206.105 39.8254ZM209.765 35.9297L208.348 37.4643L207.05 36.2838L208.466 34.7491L209.765 35.9297Z" fill="black"/>
<path d="M209.765 43.485L208.584 44.5475C210.591 44.0753 211.772 45.2558 212.244 45.728C213.188 46.6724 213.778 48.4432 212.834 49.9779C212.48 50.5682 212.008 51.0404 211.299 51.6306L206.577 55.8805L205.397 54.5819L209.883 50.4501C210.709 49.7418 210.945 49.5057 211.063 49.1515C211.654 48.2071 211.299 47.1447 210.591 46.4363C210.001 45.8461 209.411 45.4919 208.584 45.4919C207.522 45.4919 206.813 45.9641 206.341 46.5544L201.855 50.6862L200.675 49.3876L208.466 42.1865L209.765 43.485Z" fill="black"/>
<path d="M216.139 57.5332L213.896 65.3246L212.598 63.5539L214.368 57.4152L212.48 57.179L209.41 59.304L208.348 57.8874L221.097 48.3251L222.16 49.7418L214.25 55.6444L220.389 56.3527L221.688 58.1235L216.139 57.5332Z" fill="black"/>
<path d="M226.056 73.5883L226.292 73.4702C227.236 72.998 228.889 72.0536 227.827 69.9287C226.764 67.9218 225.23 68.7481 224.757 68.9843L223.931 67.2135C224.285 67.0954 224.875 66.8593 225.584 66.8593C226.882 66.8593 228.181 67.5676 229.007 69.2204C229.479 70.0467 229.834 71.3453 229.716 72.4078C229.479 73.9424 228.299 74.4147 227.118 75.123L224.049 76.7757C223.105 77.2479 222.751 77.484 223.105 78.1923C223.223 78.4284 223.341 78.5465 223.459 78.6645L222.042 79.3728C221.806 79.1367 221.57 78.9006 221.334 78.4284C220.98 77.7201 220.744 76.7757 221.806 76.0674C221.098 75.8313 219.445 75.4771 218.501 73.7063C217.556 71.8175 217.91 69.9287 219.445 69.1023C219.917 68.8662 220.508 68.7481 221.098 68.7481C222.16 68.8662 223.341 69.5745 225.112 72.1717L226.056 73.5883ZM223.223 71.9356C221.924 70.4009 221.098 70.4009 220.389 70.755C219.681 71.1092 219.327 72.0536 219.917 73.2341C220.508 74.2966 221.452 75.0049 222.632 75.0049C223.223 75.0049 223.459 74.8869 224.875 74.1785C224.521 73.5883 224.049 72.7619 223.223 71.9356Z" fill="black"/>
<path d="M237.979 76.3035L231.722 78.7826C232.194 78.9006 233.847 79.3729 234.791 81.4978C235.618 83.6227 235.145 86.574 231.368 88.1087C228.889 89.0531 225.701 89.0531 224.285 85.6296C223.458 83.6227 224.049 82.3242 224.521 81.6158L223.222 82.0881L222.514 80.4353L237.388 74.5327L237.979 76.3035ZM225.465 84.9213C226.41 87.1643 228.771 87.1643 230.659 86.456C233.139 85.5116 233.729 83.6227 233.139 81.97C232.548 80.5534 231.014 79.1367 228.18 80.3173C225.229 81.3797 224.757 83.3866 225.465 84.9213Z" fill="black"/>
<path d="M227.827 96.6084C226.883 93.0669 229.126 90.8239 231.841 90.1156C234.084 89.5253 237.744 89.7614 238.806 93.6571C239.751 97.0806 237.508 99.3236 234.674 100.15C231.487 100.976 228.654 99.7958 227.827 96.6084ZM235.501 97.7889C237.39 96.8445 237.626 95.3098 237.271 94.1293C236.681 91.7683 234.556 91.4141 232.195 92.0044C230.07 92.5946 228.536 94.0113 229.126 96.2543C229.952 99.2056 233.022 98.4973 234.084 98.2612C234.792 98.1431 235.265 97.907 235.501 97.7889Z" fill="black"/>
<path d="M240.34 101.803L240.576 103.574L234.555 104.518C233.493 104.636 233.375 104.754 233.139 104.754C231.84 105.108 231.722 106.289 231.84 107.115C231.958 108.178 232.548 109.004 233.257 109.358C234.083 109.83 234.909 109.712 236.208 109.594L241.52 108.768L241.756 110.539L231.25 112.191L231.014 110.421L232.666 110.184C232.194 109.948 230.541 109.122 230.187 106.879C229.951 105.462 230.541 104.518 230.896 104.164C231.604 103.219 232.548 103.101 234.319 102.865L240.34 101.803Z" fill="black"/>
<path d="M242.229 116.559L242.347 118.448L240.813 118.566L240.695 116.677L234.556 117.15C233.257 117.268 232.785 117.268 232.785 118.094C232.785 118.448 233.021 118.92 233.139 119.275L231.605 119.393C231.487 119.038 231.368 118.33 231.25 117.622C231.132 115.497 232.077 115.497 233.493 115.379L240.34 114.907L240.222 113.254L241.757 113.136L241.875 114.789L245.181 114.552L245.299 116.441L242.229 116.559Z" fill="black"/>
<path d="M242.111 135.802L229.715 130.726C227.59 129.899 226.41 129.309 226.528 127.302C226.528 126.594 226.764 126.003 226.882 125.649L228.535 125.767C228.417 126.003 228.299 126.358 228.299 126.948C228.181 128.246 229.007 128.601 230.424 129.191L231.722 129.663L242.583 126.594L242.465 128.483L233.847 130.726L242.111 134.031V135.802Z" fill="black"/>
<path d="M230.306 141.232C230.896 137.573 233.847 136.51 236.562 136.864C238.923 137.218 242.111 138.871 241.403 143.003C240.93 146.545 237.979 147.725 235.028 147.253C231.958 146.663 229.833 144.42 230.306 141.232ZM236.917 145.364C239.042 145.246 239.868 144.065 240.104 142.767C240.458 140.406 238.805 139.107 236.326 138.753C234.083 138.399 232.195 139.107 231.84 141.35C231.368 144.302 234.438 145.01 235.5 145.246C236.09 145.364 236.681 145.364 236.917 145.364Z" fill="black"/>
<path d="M239.75 151.031L239.278 152.801L233.375 151.267C232.313 151.031 232.195 150.912 231.959 150.912C230.542 150.676 230.07 151.739 229.834 152.565C229.598 153.628 229.716 154.572 230.188 155.162C230.778 155.989 231.604 156.225 232.785 156.579L237.979 157.996L237.507 159.766L227.237 157.051L227.709 155.28L229.243 155.753C228.889 155.28 227.827 153.864 228.299 151.739C228.653 150.322 229.48 149.732 230.07 149.496C231.132 149.024 231.959 149.26 233.729 149.732L239.75 151.031Z" fill="black"/>
<path d="M235.737 164.607L233.966 163.898C235.501 165.551 234.911 167.322 234.675 168.03L232.904 167.322C233.022 167.086 233.14 166.968 233.14 166.613C233.494 165.669 233.376 164.607 232.786 163.898C232.196 163.19 231.369 162.836 230.425 162.6L225.821 160.947L226.411 159.294L236.445 162.954L235.737 164.607Z" fill="black"/>
<path d="M224.167 176.412C225.348 175.113 226.765 173.46 228.653 174.405C230.424 175.349 230.66 177.356 229.598 179.481C228.653 181.252 226.765 182.787 224.404 181.96L225.112 180.071C225.702 180.307 226.174 180.544 227.001 180.189C227.827 179.835 228.299 179.127 228.535 178.655C229.244 177.356 228.772 176.412 228.181 176.058C227.237 175.585 226.41 176.412 225.466 177.592L224.758 178.419C223.931 179.363 222.397 181.134 220.39 180.189C218.855 179.363 218.147 177.238 219.445 174.641C220.036 173.578 220.744 172.634 221.688 172.162C222.043 171.926 223.341 171.454 224.994 172.044L224.286 174.051C223.931 173.815 223.105 173.342 222.043 173.815C221.216 174.169 220.862 174.759 220.508 175.467C219.8 176.884 219.918 177.946 220.862 178.537C221.924 179.127 222.633 178.419 223.341 177.356L224.167 176.412Z" fill="black"/>
<path d="M219.563 187.509L211.536 188.099L212.716 186.21L219.091 185.856L218.619 184.085L215.432 182.078L216.376 180.544L229.716 189.279L228.771 190.814L220.508 185.384L221.924 191.404L220.744 193.293L219.563 187.509Z" fill="black"/>
<path d="M218.383 196.481L209.883 190.106L210.946 188.689L219.446 195.064L218.383 196.481ZM222.633 199.668L220.98 198.369L222.043 196.953L223.695 198.251L222.633 199.668Z" fill="black"/>
<path d="M215.077 200.612L213.897 199.55C214.605 201.439 213.543 202.855 213.188 203.328C212.244 204.39 210.709 205.098 209.057 204.39C208.466 204.154 207.994 203.682 207.286 203.092L202.564 198.96L203.744 197.661L208.348 201.675C209.175 202.383 209.411 202.619 209.765 202.737C210.709 203.21 211.772 202.737 212.362 202.029C212.834 201.439 213.188 200.73 213.07 199.904C212.952 198.842 212.362 198.251 211.772 197.779L207.168 193.765L208.348 192.349L216.376 199.314L215.077 200.612Z" fill="black"/>
<path d="M195.599 213.716L195.717 213.952C196.426 214.779 197.606 216.195 199.495 214.661C201.266 213.244 200.203 211.945 199.849 211.473L201.384 210.293C201.62 210.647 201.974 211.119 202.092 211.827C202.328 213.126 201.856 214.543 200.439 215.605C199.731 216.195 198.55 216.904 197.488 216.904C195.953 216.904 195.245 215.959 194.301 214.897L192.058 212.181C191.349 211.355 191.113 211.001 190.523 211.473C190.405 211.591 190.169 211.827 190.169 211.945L189.224 210.765C189.46 210.529 189.579 210.293 189.933 209.938C190.523 209.348 191.349 209.112 192.412 209.938C192.412 209.112 192.53 207.577 194.065 206.279C195.717 204.98 197.606 204.98 198.787 206.279C199.141 206.751 199.377 207.223 199.495 207.814C199.613 208.876 199.141 210.175 196.898 212.418L195.599 213.716ZM196.662 210.647C197.96 208.994 197.724 208.286 197.252 207.695C196.662 206.987 195.717 206.869 194.655 207.814C193.71 208.64 193.238 209.702 193.474 210.883C193.592 211.473 193.828 211.709 194.773 212.89C195.245 212.3 195.953 211.591 196.662 210.647Z" fill="black"/>
<path d="M192.293 221.508L191.467 220.209C191.585 222.216 190.286 223.278 189.814 223.633C188.633 224.341 186.981 224.695 185.564 223.515C185.092 223.042 184.738 222.57 184.147 221.744L180.606 216.431L182.14 215.487L185.564 220.563C186.154 221.508 186.39 221.744 186.626 221.98C187.453 222.688 188.515 222.452 189.342 221.98C190.05 221.508 190.404 220.917 190.64 220.209C190.876 219.147 190.404 218.438 189.932 217.73L186.508 212.654L188.043 211.591L193.946 220.445L192.293 221.508Z" fill="black"/>
<path d="M177.065 236.5L169.745 222.334L171.398 221.508L171.988 222.688C172.107 221.98 172.461 220.563 174.468 219.501C177.183 218.084 179.898 219.265 181.433 222.334C183.321 225.994 181.551 228.591 179.662 229.535C179.072 229.889 177.419 230.48 175.648 229.653L178.717 235.674L177.065 236.5ZM179.662 223.16C178.599 221.272 176.947 220.091 174.822 221.154C173.051 222.098 172.579 224.105 173.759 226.348C175.176 229.063 177.183 229.063 178.481 228.355C179.78 227.764 181.197 225.994 179.662 223.16Z" fill="black"/>
<path d="M157.468 238.153L157.704 224.813C157.704 222.57 157.822 221.272 159.711 220.681C160.419 220.445 161.009 220.445 161.363 220.445L161.835 221.98C161.599 221.98 161.127 221.98 160.655 222.216C159.356 222.57 159.356 223.396 159.356 225.049V226.466L166.203 235.438L164.433 236.028L159.238 228.827V237.799L157.468 238.153Z" fill="black"/>
<path d="M148.141 229.181C151.683 228.355 153.808 230.716 154.516 233.431C154.988 235.792 154.634 239.334 150.62 240.16C147.197 240.986 144.954 238.625 144.363 235.792C143.655 232.723 144.954 229.889 148.141 229.181ZM146.724 236.854C147.551 238.861 149.086 239.097 150.266 238.861C152.627 238.389 153.217 236.264 152.627 233.903C152.155 231.66 150.856 230.126 148.613 230.598C145.662 231.306 146.134 234.375 146.37 235.438C146.37 236.028 146.606 236.5 146.724 236.854Z" fill="black"/>
<path d="M142.475 241.458L140.705 241.695L139.996 235.674C139.878 234.611 139.878 234.493 139.76 234.257C139.406 232.959 138.344 232.723 137.517 232.841C136.455 232.959 135.628 233.549 135.274 234.139C134.684 234.966 134.802 235.792 134.92 237.091L135.51 242.403L133.74 242.639L132.559 232.014L134.33 231.778L134.566 233.431C134.802 232.959 135.746 231.424 137.989 231.188C139.524 231.07 140.351 231.66 140.705 232.014C141.531 232.841 141.649 233.667 141.885 235.556L142.475 241.458Z" fill="black"/>
<path d="M128.309 242.639V240.75C127.364 242.757 125.476 242.875 124.649 242.875V240.986C124.885 240.986 125.122 240.986 125.358 240.986C126.42 240.986 127.246 240.514 127.837 239.688C128.309 238.861 128.191 237.917 128.191 236.972L128.073 232.014H129.844L130.08 242.639H128.309Z" fill="black"/>
<path d="M119.337 236.618C120.99 237.091 123.115 237.681 122.997 239.924C122.879 241.813 121.226 242.993 118.747 242.875C116.74 242.757 114.615 241.695 114.379 239.215L116.386 239.097C116.386 239.806 116.386 240.278 117.094 240.868C117.802 241.458 118.629 241.577 119.101 241.577C120.517 241.695 121.226 240.868 121.226 240.16C121.226 239.097 120.163 238.743 118.747 238.389L117.802 238.035C116.504 237.681 114.261 236.972 114.379 234.729C114.497 232.959 116.15 231.424 118.983 231.66C120.163 231.778 121.462 232.014 122.288 232.723C122.642 232.959 123.587 233.903 123.705 235.674L121.698 235.91C121.698 235.438 121.816 234.493 120.99 233.785C120.399 233.195 119.573 233.077 118.865 233.077C117.33 232.959 116.386 233.549 116.268 234.729C116.15 235.91 117.094 236.264 118.393 236.5L119.337 236.618Z" fill="black"/>
<path d="M102.809 233.313C103.164 232.605 104.58 229.889 108.122 230.48C111.191 230.952 112.962 233.431 112.372 236.972C111.781 240.986 108.712 242.049 106.469 241.695C104.58 241.34 102.691 240.042 102.455 237.209C102.337 236.264 102.573 235.438 102.573 235.084L110.601 236.382C110.955 234.611 110.365 232.25 107.768 231.896C106.233 231.66 105.17 232.605 104.58 233.903L102.809 233.313ZM104.226 236.618C103.99 239.452 105.879 240.16 106.705 240.278C108.24 240.514 109.656 239.57 110.247 237.563L104.226 236.618Z" fill="black"/>
<path d="M95.9627 244.646L99.6223 229.063L101.275 229.417L97.6154 245L95.9627 244.646Z" fill="black"/>
<path d="M91.8304 238.035L89.9416 237.445L90.2957 236.028L92.1845 236.618L94.6636 227.764L96.3164 228.237L93.8373 237.091L95.6081 237.563L95.2539 238.979L93.4831 238.507L92.8929 240.632C92.6568 241.458 91.9484 243.583 89.3513 242.757C88.8791 242.639 88.4069 242.403 88.1708 242.285L88.5249 240.986C88.8791 241.104 89.2332 241.222 89.4693 241.34C90.7679 241.695 91.1221 240.632 91.2401 239.924L91.8304 238.035Z" fill="black"/>
<path d="M88.2896 228.355L89.1159 225.994L91.2409 226.702L90.4145 229.063L88.2896 228.355Z" fill="black"/>
<path d="M58.1853 226.23L65.8586 214.425L67.6294 215.605L59.956 227.41L63.9698 230.007L62.9073 231.542L53.109 225.167L54.1715 223.633L58.1853 226.23Z" fill="black"/>
<path d="M50.6299 223.278L49.2133 222.098L53.227 217.14C51.5743 217.376 50.6299 216.786 49.8035 216.195C48.0327 214.661 48.0327 213.126 48.505 212.064C48.7411 211.355 49.2133 210.883 49.9216 210.057L53.8173 205.216L55.2339 206.397L51.6924 210.765C50.866 211.827 50.2757 212.536 50.1577 213.244C50.0396 214.07 50.5118 214.661 51.1021 215.133C52.0465 215.841 53.3451 216.195 54.6437 215.133C55.1159 214.779 55.47 214.307 55.9422 213.716L59.2477 209.702L60.6643 210.883L50.6299 223.278Z" fill="black"/>
<path d="M39.6519 213.834L41.0685 212.3L42.3671 213.48L40.9504 215.015L39.6519 213.834ZM43.3115 209.939L50.6307 202.147L51.9293 203.328L44.61 211.119L43.3115 209.939Z" fill="black"/>
<path d="M39.6512 206.279L40.8317 205.216C38.8249 205.689 37.6443 204.508 37.1721 204.036C36.2277 203.091 35.6374 201.321 36.5819 199.786C36.936 199.196 37.4082 198.842 38.1165 198.133L42.8386 193.883L44.0191 195.182L39.5332 199.314C38.7068 200.022 38.4707 200.258 38.3526 200.612C37.7624 201.557 38.1165 202.619 38.8248 203.328C39.4151 203.918 40.0054 204.272 40.8317 204.272C41.8942 204.272 42.6025 203.8 43.1928 203.21L47.6788 199.078L48.8593 200.376L40.9498 207.577L39.6512 206.279Z" fill="black"/>
<path d="M33.3948 192.349L35.6377 184.557L36.9363 186.328L35.1655 192.467L37.0544 192.703L40.0057 190.46L41.0681 191.877L28.3185 201.439L27.256 200.022L35.1655 194.12L29.0268 193.411L27.7283 191.64L33.3948 192.349Z" fill="black"/>
<path d="M23.4785 176.176L23.2424 176.294C22.2979 176.766 20.6452 177.71 21.7077 179.835C22.7701 181.842 24.3048 181.016 24.777 180.78L25.6034 182.55C25.2492 182.668 24.659 182.905 23.9507 182.905C22.6521 182.905 21.3535 182.196 20.5272 180.544C20.0549 179.717 19.7008 178.419 19.8188 177.356C20.0549 175.821 21.2355 175.349 22.416 174.641L25.4853 172.988C26.4298 172.516 26.7839 172.28 26.4298 171.572C26.3117 171.335 26.1937 171.217 26.0756 171.099L27.4922 170.391C27.7283 170.627 27.9644 170.863 28.2005 171.335C28.5547 172.044 28.7908 172.988 27.7283 173.696C28.4366 173.933 29.9713 174.287 31.0338 176.058C31.9782 177.946 31.6241 179.835 30.0894 180.662C29.6172 180.898 29.0269 181.016 28.4366 181.016C27.3742 180.898 26.1937 180.189 24.4229 177.592L23.4785 176.176ZM26.3117 177.946C27.6103 179.481 28.4366 179.481 29.145 179.127C29.8533 178.773 30.2074 177.828 29.6172 176.648C29.0269 175.585 28.0825 174.877 26.902 174.877C26.3117 174.877 26.0756 174.995 24.659 175.703C25.0131 176.176 25.4853 177.002 26.3117 177.946Z" fill="black"/>
<path d="M11.5553 173.46L17.8121 170.981C17.3399 170.863 15.6871 170.391 14.7427 168.266C13.9163 166.141 14.3885 163.072 18.1662 161.655C20.6453 160.711 23.8327 160.711 25.2493 164.134C26.0757 166.141 25.3674 167.44 25.0132 168.148L26.3118 167.676L27.0201 169.329L12.1456 175.231L11.5553 173.46ZM24.0688 164.843C23.1244 162.6 20.7634 162.6 18.8745 163.308C16.3954 164.252 15.8052 166.141 16.3954 167.794C16.9857 169.211 18.5204 170.627 21.3536 169.447C24.3049 168.384 24.7771 166.377 24.0688 164.843Z" fill="black"/>
<path d="M21.8255 153.155C22.7699 156.697 20.5269 158.94 17.8117 159.648C15.5687 160.239 11.9091 160.002 10.8466 155.989C9.90221 152.565 12.1452 150.322 14.9785 149.496C18.0478 148.787 20.8811 149.968 21.8255 153.155ZM14.034 151.975C12.1452 152.919 11.9091 154.454 12.2633 155.635C12.8535 157.996 14.9785 158.468 17.3395 157.759C19.4644 157.169 20.9991 155.753 20.4089 153.51C19.5825 150.558 16.5131 151.267 15.4507 151.503C14.8604 151.621 14.3882 151.857 14.034 151.975Z" fill="black"/>
<path d="M9.19476 147.843L8.95866 146.072L14.9793 145.128C16.0418 145.01 16.1598 144.892 16.3959 144.892C17.6945 144.538 17.8126 143.357 17.6945 142.531C17.5765 141.468 16.9862 140.642 16.2779 140.288C15.4515 139.816 14.6252 139.934 13.3266 140.052L8.01424 140.878L7.77814 139.107L18.2848 137.455L18.5209 139.225L16.9862 139.579C17.4584 139.816 19.1111 140.642 19.4653 142.885C19.7014 144.302 19.1111 145.246 18.757 145.6C18.0487 146.545 17.1043 146.663 15.3335 146.899L9.19476 147.843Z" fill="black"/>
<path d="M7.30546 133.205L7.18741 131.316L8.72209 131.198L8.84014 133.087L14.9789 132.614C16.2774 132.496 16.7496 132.496 16.7496 131.67C16.7496 131.316 16.5135 130.844 16.3955 130.489L17.9302 130.371C18.0482 130.726 18.1663 131.434 18.2843 132.142C18.4024 134.267 17.4579 134.267 16.0413 134.385L9.19429 134.857L9.31235 136.51L7.77767 136.628L7.54156 135.093L4.2361 135.33L4 133.441L7.30546 133.205Z" fill="black"/>
<path d="M7.54168 113.962L19.8191 119.156C21.944 119.983 23.1246 120.573 23.0065 122.58C23.0065 123.288 22.7704 123.879 22.6524 124.233L20.9996 124.115C21.1177 123.879 21.2357 123.524 21.2357 122.934C21.3538 121.636 20.5274 121.281 19.1108 120.691L17.8122 120.219L6.95142 123.288L7.06947 121.399L15.6873 119.156L7.42362 115.851L7.54168 113.962Z" fill="black"/>
<path d="M19.3467 108.532C18.7564 112.191 15.8051 113.254 13.0899 112.9C10.7289 112.546 7.54145 110.893 8.24976 106.761C8.84002 103.219 11.7913 102.039 14.6246 102.511C17.6939 103.101 19.8189 105.344 19.3467 108.532ZM12.7357 104.4C10.6108 104.518 9.78444 105.698 9.54833 106.997C9.19418 109.358 10.8469 110.657 13.326 111.011C15.569 111.365 17.4578 110.775 17.812 108.414C18.2842 105.462 15.2148 104.754 14.1524 104.518C13.5621 104.4 13.0899 104.4 12.7357 104.4Z" fill="black"/>
<path d="M9.90283 98.7334L10.375 96.9626L16.2776 98.4973C17.3401 98.7334 17.4582 98.8515 17.6943 98.8515C19.1109 99.0876 19.7012 98.0251 19.8192 97.1987C20.0553 96.1363 19.9373 95.1918 19.4651 94.6016C18.8748 93.7752 18.0484 93.5391 16.8679 93.1849L11.6736 91.7683L12.2639 90.2336L22.5344 92.9488L22.0622 94.7196L20.5275 94.2474C20.8817 94.7196 21.9442 96.1363 21.4719 98.2612C21.1178 99.6778 20.1734 100.268 19.7012 100.504C18.6387 100.976 17.8123 100.74 16.0415 100.268L9.90283 98.7334Z" fill="black"/>
<path d="M14.0347 85.1574L15.8054 85.8657C14.2708 84.213 14.861 82.4422 15.0971 81.7339L16.8679 82.4422C16.7499 82.6783 16.6318 82.7964 16.5138 83.1505C16.1596 84.0949 16.2776 85.1574 16.8679 85.8657C17.4582 86.574 18.2845 86.9282 19.229 87.1643L24.0691 88.817L23.4788 90.4697L13.4444 86.8101L14.0347 85.1574Z" fill="black"/>
<path d="M25.6038 73.3522C24.4233 74.6507 23.0066 76.3035 21.1178 75.241C19.347 74.2966 19.1109 72.2897 20.1734 70.1648C21.1178 68.394 23.0066 66.8593 25.3677 67.6857L24.6594 69.5745C24.0691 69.3384 23.5969 69.1023 22.7705 69.4564C21.9442 69.8106 21.472 70.5189 21.2359 70.9911C20.5275 72.2897 20.9998 73.2341 21.59 73.5883C22.5344 74.0605 23.3608 73.2341 24.3052 72.0536L25.0135 71.2272C25.8399 70.2828 27.3746 68.512 29.3815 69.5745C30.9161 70.4009 31.6244 72.5258 30.3259 75.123C29.7356 76.1854 29.0273 77.1298 28.0829 77.602C27.7287 77.8382 26.4302 78.3104 24.7774 77.602L25.4857 75.5952C25.8399 75.8313 26.6663 76.3035 27.7287 75.8313C28.5551 75.4771 28.9092 74.8868 29.2634 74.1785C29.9717 72.7619 29.8537 71.6994 28.9092 71.1092C27.8468 70.5189 27.1385 71.2272 26.4302 72.2897L25.6038 73.3522Z" fill="black"/>
<path d="M30.0901 62.3734L38.1176 61.7831L36.9371 63.6719L30.5623 64.0261L31.0345 65.7969L34.2219 67.8038L33.1594 69.3384L19.8195 60.6026L20.882 59.0679L29.1456 64.4983L27.611 58.5957L28.7915 56.7068L30.0901 62.3734Z" fill="black"/>
<path d="M27.2561 50.0959L28.9089 51.3945L27.8464 52.8111L26.1937 51.5126L27.2561 50.0959ZM31.388 53.2834L39.8877 59.6582L38.8252 61.0748L30.3255 54.7L31.388 53.2834Z" fill="black"/>
<path d="M34.6938 49.1515L35.8743 50.214C35.166 48.3252 36.2285 46.9085 36.7007 46.4363C37.6451 45.3739 39.1798 44.6656 40.8325 45.3739C41.4228 45.61 41.895 46.0822 42.6033 46.6724L47.3254 50.9223L46.1449 52.2209L41.5409 48.2071C40.7145 47.4988 40.4784 47.2627 40.1242 47.1446C39.1798 46.6724 38.1173 47.1446 37.5271 47.853C37.0549 48.4432 36.7007 49.1515 36.8188 49.8598C36.9368 50.9223 37.5271 51.5126 38.1173 51.9848L42.7214 55.9986L41.5409 57.2971L33.5133 50.214L34.6938 49.1515Z" fill="black"/>
<path d="M54.2902 36.1658L54.1721 35.9297C53.4638 35.1033 52.2833 33.6867 50.3944 35.2214C48.6237 36.638 49.6861 37.9366 50.0403 38.4088L48.5056 39.5893C48.2695 39.2352 47.9153 38.7629 47.7973 38.0546C47.5612 36.7561 48.0334 35.3394 49.45 34.277C50.1583 33.6867 51.3389 32.9784 52.4013 32.9784C53.936 32.9784 54.6443 33.9228 55.5887 34.9853L57.8317 37.7005C58.54 38.5268 58.7761 38.881 59.3664 38.4088C59.4845 38.2907 59.7206 38.0546 59.7206 37.9366L60.665 39.1171C60.4289 39.3532 60.3108 39.5893 59.9567 39.9435C59.3664 40.5337 58.54 40.7698 57.4776 39.9435C57.4776 40.7698 57.3595 42.3045 55.7068 43.6031C54.0541 44.9017 52.1652 44.9017 50.9847 43.6031C50.6305 43.1309 50.3944 42.6587 50.2764 42.0684C50.1583 41.0059 50.6305 39.7074 52.8735 37.4644L54.2902 36.1658ZM53.1096 39.1171C51.8111 40.7698 52.0472 41.4781 52.5194 42.0684C53.1096 42.7767 54.0541 42.8948 55.1165 41.9504C56.0609 41.124 56.5332 40.0615 56.297 38.881C56.179 38.2907 55.9429 38.0546 54.9985 36.8741C54.5263 37.4644 53.936 38.1727 53.1096 39.1171Z" fill="black"/>
<path d="M57.4773 28.3743L58.3037 29.6729C58.1856 27.666 59.4842 26.6035 60.0745 26.2494C61.255 25.5411 62.9077 25.1869 64.3243 26.3674C64.7965 26.8396 65.1507 27.3118 65.741 28.1382L69.2825 33.4506L67.7478 34.2769L64.4424 29.2007C63.8521 28.2563 63.616 28.0202 63.3799 27.784C62.5535 27.0757 61.4911 27.3118 60.6647 27.784C59.9564 28.2563 59.6022 28.8465 59.3661 29.5548C59.13 30.6173 59.6022 31.3256 60.0745 32.0339L63.498 37.1102L61.8452 38.1726L55.9426 29.3187L57.4773 28.3743Z" fill="black"/>
<path d="M72.8246 13.2637L80.1439 27.4299L78.4911 28.2563L77.9009 27.0758C77.7828 27.7841 77.4287 29.2007 75.4218 30.2632C72.7066 31.6798 69.9914 30.4993 68.4567 27.4299C66.5679 23.7703 68.3386 21.1732 70.2275 20.2287C70.8177 19.8746 72.4705 19.2843 74.3593 20.1107L71.2899 14.09L72.8246 13.2637ZM70.2275 26.7216C71.2899 28.7285 72.9427 29.791 75.0676 28.7285C76.8384 27.7841 77.3106 25.7772 76.1301 23.5342C74.7135 20.819 72.7066 20.819 71.408 21.5273C70.1094 22.1176 68.6928 23.7703 70.2275 26.7216Z" fill="black"/>
<path d="M92.3029 11.7289L92.0668 25.0688C92.0668 27.3118 91.8307 28.6104 89.9419 29.2007C89.2336 29.4368 88.6433 29.4368 88.2892 29.4368L87.817 28.0201C88.0531 28.0201 88.5253 28.0201 88.9975 27.784C90.2961 27.4299 90.2961 26.6035 90.2961 24.9508V23.5342L83.449 14.4441L85.2198 13.8539L90.4141 21.0551V12.0831L92.3029 11.7289Z" fill="black"/>
<path d="M101.63 20.701C98.0879 21.5273 95.963 19.1663 95.2547 16.4511C94.7825 14.09 95.1366 10.5485 99.1504 9.72211C102.574 9.0138 104.817 11.2568 105.407 14.09C106.234 17.2774 104.817 19.9926 101.63 20.701ZM103.164 13.1456C102.338 11.1387 100.803 10.9026 99.6226 11.1387C97.2616 11.6109 96.6713 13.7359 97.2616 16.0969C97.7338 18.3399 99.0324 19.8746 101.275 19.4024C104.227 18.8121 103.754 15.6247 103.518 14.5623C103.518 13.8539 103.282 13.3817 103.164 13.1456Z" fill="black"/>
<path d="M107.413 8.42354L109.184 8.18744L109.892 14.2081C110.01 15.2706 110.01 15.3886 110.128 15.6247C110.482 16.9233 111.545 17.1594 112.371 17.0414C113.434 16.9233 114.26 16.333 114.614 15.7428C115.204 14.9164 115.086 14.09 114.968 12.7915L114.378 7.47913H116.149L117.329 18.1038L115.559 18.3399L115.322 16.6872C115.086 17.1594 114.142 18.6941 111.899 18.9302C110.364 19.0482 109.538 18.458 109.184 18.1038C108.357 17.2775 108.239 16.333 108.003 14.5623L107.413 8.42354Z" fill="black"/>
<path d="M121.58 7.243V9.13184C122.524 7.12495 124.413 7.0069 125.239 7.0069V8.89573C125.003 8.89573 124.767 8.89573 124.531 8.89573C123.468 8.89573 122.642 9.36794 122.052 10.1943C121.58 11.0207 121.698 11.9651 121.698 12.9095L121.816 17.8677H120.045L119.809 7.243H121.58Z" fill="black"/>
<path d="M130.552 13.3817C128.899 12.9095 126.774 12.3192 126.892 10.0762C127.01 8.1874 128.663 7.00687 131.142 7.12493C133.149 7.24298 135.274 8.30545 135.51 10.9026L133.503 11.0206C133.503 10.3123 133.503 9.84013 132.795 9.24987C132.086 8.6596 131.496 8.54155 130.906 8.4235C129.489 8.30545 128.781 9.13181 128.781 9.84013C128.781 10.9026 129.843 11.2568 131.26 11.6109L132.204 11.9651C133.503 12.3192 135.746 13.0275 135.628 15.2705C135.51 17.0413 133.857 18.576 131.024 18.3399C129.843 18.2218 128.545 17.9857 127.718 17.2774C127.364 17.0413 126.42 16.0969 126.302 14.3261L128.309 14.09C128.309 14.5622 128.191 15.5066 129.017 16.2149C129.607 16.8052 130.434 16.9233 131.142 16.9233C132.677 17.0413 133.739 16.451 133.739 15.2705C133.857 14.09 132.913 13.7358 131.614 13.4997L130.552 13.3817Z" fill="black"/>
<path d="M147.08 16.8052C146.725 17.5135 145.309 20.2287 141.767 19.6384C138.698 19.1662 136.927 16.6871 137.517 13.1456C138.108 9.13179 141.295 8.06932 143.42 8.42348C145.309 8.77763 147.198 10.0762 147.434 12.9095C147.552 13.8539 147.316 14.6802 147.316 15.0344L139.288 13.7358C138.934 15.5066 139.524 17.8676 142.003 18.2218C143.538 18.4579 144.6 17.5135 145.191 16.2149L147.08 16.8052ZM145.545 13.3817C145.781 10.5484 143.892 9.8401 143.066 9.72205C141.531 9.48595 140.114 10.4304 139.524 12.4373L145.545 13.3817Z" fill="black"/>
<path d="M153.927 5.35416L150.267 20.937L148.614 20.5829L152.274 5L153.927 5.35416Z" fill="black"/>
<path d="M158.058 11.9651L159.947 12.5553L159.593 13.9719L157.704 13.3817L155.225 22.2356L153.573 21.7634L156.052 12.9095L154.281 12.4373L154.635 11.0206L156.406 11.4929L156.996 9.36791C157.232 8.54155 157.94 6.41661 160.538 7.24297C161.01 7.36102 161.482 7.59713 161.718 7.71518L161.364 9.01376C161.01 8.8957 160.656 8.77765 160.42 8.6596C159.121 8.30544 158.767 9.24986 158.649 10.0762L158.058 11.9651Z" fill="black"/>
<path d="M161.482 21.6453L160.656 24.0064L158.531 23.2981L159.357 20.937L161.482 21.6453Z" fill="black"/>
</svg>
