<?xml version="1.0" encoding="utf-8"?>
<!-- Generator: Adobe Illustrator 27.3.1, SVG Export Plug-In . SVG Version: 6.00 Build 0)  -->
<svg version="1.1" id="レイヤー_1" xmlns="http://www.w3.org/2000/svg" xmlns:xlink="http://www.w3.org/1999/xlink" x="0px"
	 y="0px" viewBox="0 0 250 250" style="enable-background:new 0 0 250 250;" xml:space="preserve">
<style type="text/css">
	.st0{display:none;}
	.st1{display:inline;}
	.st2{fill:none;}
</style>
<g class="st0">
	<path class="st1" d="M191.2,23.7l-7.7,11.8l-1.8-1.2l7.7-11.8l-4-2.6l1.1-1.5l9.8,6.4l-1.1,1.5L191.2,23.7z"/>
	<path class="st1" d="M198.8,26.5l1.4,1.2l-4,5c1.7-0.2,2.6,0.4,3.4,0.9c1.8,1.5,1.8,3.1,1.3,4.1c-0.2,0.7-0.7,1.2-1.4,2l-3.9,4.8
		l-1.4-1.2l3.5-4.4c0.8-1.1,1.4-1.8,1.4-2.5c0.1-0.8-0.4-1.4-0.9-1.9c-0.9-0.7-2.2-1.1-3.5,0c-0.5,0.4-0.8,0.8-1.3,1.4l-3.3,4
		l-1.4-1.2L198.8,26.5z"/>
	<path class="st1" d="M206.1,39.8l-7.3,7.8l-1.3-1.2l7.3-7.8L206.1,39.8z M209.8,35.9l-1.4,1.5l-1.3-1.2l1.4-1.5L209.8,35.9z"/>
	<path class="st1" d="M209.8,43.5l-1.2,1.1c2-0.5,3.2,0.7,3.7,1.2c0.9,0.9,1.5,2.7,0.6,4.2c-0.4,0.6-0.8,1.1-1.5,1.7l-4.7,4.2
		l-1.2-1.3l4.5-4.1c0.8-0.7,1.1-0.9,1.2-1.3c0.6-0.9,0.2-2-0.5-2.7c-0.6-0.6-1.2-0.9-2-0.9c-1.1,0-1.8,0.5-2.2,1.1l-4.5,4.1
		l-1.2-1.3l7.8-7.2L209.8,43.5z"/>
	<path class="st1" d="M216.1,57.5l-2.2,7.8l-1.3-1.8l1.8-6.1l-1.9-0.2l-3.1,2.1l-1.1-1.4l12.7-9.6l1.1,1.4l-7.9,5.9l6.1,0.7l1.3,1.8
		L216.1,57.5z"/>
	<path class="st1" d="M226.1,73.6l0.2-0.1c0.9-0.5,2.6-1.4,1.5-3.5c-1.1-2-2.6-1.2-3.1-0.9l-0.8-1.8c0.4-0.1,0.9-0.4,1.7-0.4
		c1.3,0,2.6,0.7,3.4,2.4c0.5,0.8,0.8,2.1,0.7,3.2c-0.2,1.5-1.4,2-2.6,2.7l-3.1,1.7c-0.9,0.5-1.3,0.7-0.9,1.4
		c0.1,0.2,0.2,0.4,0.4,0.5l-1.4,0.7c-0.2-0.2-0.5-0.5-0.7-0.9c-0.4-0.7-0.6-1.7,0.5-2.4c-0.7-0.2-2.4-0.6-3.3-2.4
		c-0.9-1.9-0.6-3.8,0.9-4.6c0.5-0.2,1.1-0.4,1.7-0.4c1.1,0.1,2.2,0.8,4,3.4L226.1,73.6z M223.2,71.9c-1.3-1.5-2.1-1.5-2.8-1.2
		c-0.7,0.4-1.1,1.3-0.5,2.5c0.6,1.1,1.5,1.8,2.7,1.8c0.6,0,0.8-0.1,2.2-0.8C224.5,73.6,224,72.8,223.2,71.9z"/>
	<path class="st1" d="M238,76.3l-6.3,2.5c0.5,0.1,2.1,0.6,3.1,2.7c0.8,2.1,0.4,5.1-3.4,6.6c-2.5,0.9-5.7,0.9-7.1-2.5
		c-0.8-2-0.2-3.3,0.2-4l-1.3,0.5l-0.7-1.7l14.9-5.9L238,76.3z M225.5,84.9c0.9,2.2,3.3,2.2,5.2,1.5c2.5-0.9,3.1-2.8,2.5-4.5
		c-0.6-1.4-2.1-2.8-5-1.7C225.2,81.4,224.8,83.4,225.5,84.9z"/>
	<path class="st1" d="M227.8,96.6c-0.9-3.5,1.3-5.8,4-6.5c2.2-0.6,5.9-0.4,7,3.5c0.9,3.4-1.3,5.7-4.1,6.5
		C231.5,101,228.7,99.8,227.8,96.6z M235.5,97.8c1.9-0.9,2.1-2.5,1.8-3.7c-0.6-2.4-2.7-2.7-5.1-2.1c-2.1,0.6-3.7,2-3.1,4.2
		c0.8,3,3.9,2.2,5,2C234.8,98.1,235.3,97.9,235.5,97.8z"/>
	<path class="st1" d="M240.3,101.8l0.2,1.8l-6,0.9c-1.1,0.1-1.2,0.2-1.4,0.2c-1.3,0.4-1.4,1.5-1.3,2.4c0.1,1.1,0.7,1.9,1.4,2.2
		c0.8,0.5,1.7,0.4,3,0.2l5.3-0.8l0.2,1.8l-10.5,1.7l-0.2-1.8l1.7-0.2c-0.5-0.2-2.1-1.1-2.5-3.3c-0.2-1.4,0.4-2.4,0.7-2.7
		c0.7-0.9,1.7-1.1,3.4-1.3L240.3,101.8z"/>
	<path class="st1" d="M242.2,116.6l0.1,1.9l-1.5,0.1l-0.1-1.9l-6.1,0.5c-1.3,0.1-1.8,0.1-1.8,0.9c0,0.4,0.2,0.8,0.4,1.2l-1.5,0.1
		c-0.1-0.4-0.2-1.1-0.4-1.8c-0.1-2.1,0.8-2.1,2.2-2.2l6.8-0.5l-0.1-1.7l1.5-0.1l0.1,1.7l3.3-0.2l0.1,1.9L242.2,116.6z"/>
	<path class="st1" d="M242.1,135.8l-12.4-5.1c-2.1-0.8-3.3-1.4-3.2-3.4c0-0.7,0.2-1.3,0.4-1.7l1.7,0.1c-0.1,0.2-0.2,0.6-0.2,1.2
		c-0.1,1.3,0.7,1.7,2.1,2.2l1.3,0.5l10.9-3.1l-0.1,1.9l-8.6,2.2l8.3,3.3V135.8z"/>
	<path class="st1" d="M230.3,141.2c0.6-3.7,3.5-4.7,6.3-4.4c2.4,0.4,5.5,2,4.8,6.1c-0.5,3.5-3.4,4.7-6.4,4.2
		C232,146.7,229.8,144.4,230.3,141.2z M236.9,145.4c2.1-0.1,3-1.3,3.2-2.6c0.4-2.4-1.3-3.7-3.8-4c-2.2-0.4-4.1,0.4-4.5,2.6
		c-0.5,3,2.6,3.7,3.7,3.9C236.1,145.4,236.7,145.4,236.9,145.4z"/>
	<path class="st1" d="M239.8,151l-0.5,1.8l-5.9-1.5c-1.1-0.2-1.2-0.4-1.4-0.4c-1.4-0.2-1.9,0.8-2.1,1.7c-0.2,1.1-0.1,2,0.4,2.6
		c0.6,0.8,1.4,1.1,2.6,1.4l5.2,1.4l-0.5,1.8l-10.3-2.7l0.5-1.8l1.5,0.5c-0.4-0.5-1.4-1.9-0.9-4c0.4-1.4,1.2-2,1.8-2.2
		c1.1-0.5,1.9-0.2,3.7,0.2L239.8,151z"/>
	<path class="st1" d="M235.7,164.6l-1.8-0.7c1.5,1.7,0.9,3.4,0.7,4.1l-1.8-0.7c0.1-0.2,0.2-0.4,0.2-0.7c0.4-0.9,0.2-2-0.4-2.7
		c-0.6-0.7-1.4-1.1-2.4-1.3l-4.6-1.7l0.6-1.7l10,3.7L235.7,164.6z"/>
	<path class="st1" d="M224.2,176.4c1.2-1.3,2.6-3,4.5-2c1.8,0.9,2,3,0.9,5.1c-0.9,1.8-2.8,3.3-5.2,2.5l0.7-1.9
		c0.6,0.2,1.1,0.5,1.9,0.1c0.8-0.4,1.3-1.1,1.5-1.5c0.7-1.3,0.2-2.2-0.4-2.6c-0.9-0.5-1.8,0.4-2.7,1.5l-0.7,0.8
		c-0.8,0.9-2.4,2.7-4.4,1.8c-1.5-0.8-2.2-3-0.9-5.5c0.6-1.1,1.3-2,2.2-2.5c0.4-0.2,1.7-0.7,3.3-0.1l-0.7,2c-0.4-0.2-1.2-0.7-2.2-0.2
		c-0.8,0.4-1.2,0.9-1.5,1.7c-0.7,1.4-0.6,2.5,0.4,3.1c1.1,0.6,1.8-0.1,2.5-1.2L224.2,176.4z"/>
	<path class="st1" d="M219.6,187.5l-8,0.6l1.2-1.9l6.4-0.4l-0.5-1.8l-3.2-2l0.9-1.5l13.3,8.7l-0.9,1.5l-8.3-5.4l1.4,6l-1.2,1.9
		L219.6,187.5z"/>
	<path class="st1" d="M218.4,196.5l-8.5-6.4l1.1-1.4l8.5,6.4L218.4,196.5z M222.6,199.7l-1.7-1.3l1.1-1.4l1.7,1.3L222.6,199.7z"/>
	<path class="st1" d="M215.1,200.6l-1.2-1.1c0.7,1.9-0.4,3.3-0.7,3.8c-0.9,1.1-2.5,1.8-4.1,1.1c-0.6-0.2-1.1-0.7-1.8-1.3l-4.7-4.1
		l1.2-1.3l4.6,4c0.8,0.7,1.1,0.9,1.4,1.1c0.9,0.5,2,0,2.6-0.7c0.5-0.6,0.8-1.3,0.7-2.1c-0.1-1.1-0.7-1.7-1.3-2.1l-4.6-4l1.2-1.4l8,7
		L215.1,200.6z"/>
	<path class="st1" d="M195.6,213.7l0.1,0.2c0.7,0.8,1.9,2.2,3.8,0.7c1.8-1.4,0.7-2.7,0.4-3.2l1.5-1.2c0.2,0.4,0.6,0.8,0.7,1.5
		c0.2,1.3-0.2,2.7-1.7,3.8c-0.7,0.6-1.9,1.3-3,1.3c-1.5,0-2.2-0.9-3.2-2l-2.2-2.7c-0.7-0.8-0.9-1.2-1.5-0.7
		c-0.1,0.1-0.4,0.4-0.4,0.5l-0.9-1.2c0.2-0.2,0.4-0.5,0.7-0.8c0.6-0.6,1.4-0.8,2.5,0c0-0.8,0.1-2.4,1.7-3.7c1.7-1.3,3.5-1.3,4.7,0
		c0.4,0.5,0.6,0.9,0.7,1.5c0.1,1.1-0.4,2.4-2.6,4.6L195.6,213.7z M196.7,210.6c1.3-1.7,1.1-2.4,0.6-3c-0.6-0.7-1.5-0.8-2.6,0.1
		c-0.9,0.8-1.4,1.9-1.2,3.1c0.1,0.6,0.4,0.8,1.3,2C195.2,212.3,196,211.6,196.7,210.6z"/>
	<path class="st1" d="M192.3,221.5l-0.8-1.3c0.1,2-1.2,3.1-1.7,3.4c-1.2,0.7-2.8,1.1-4.2-0.1c-0.5-0.5-0.8-0.9-1.4-1.8l-3.5-5.3
		l1.5-0.9l3.4,5.1c0.6,0.9,0.8,1.2,1.1,1.4c0.8,0.7,1.9,0.5,2.7,0c0.7-0.5,1.1-1.1,1.3-1.8c0.2-1.1-0.2-1.8-0.7-2.5l-3.4-5.1
		l1.5-1.1l5.9,8.9L192.3,221.5z"/>
	<path class="st1" d="M177.1,236.5l-7.3-14.2l1.7-0.8l0.6,1.2c0.1-0.7,0.5-2.1,2.5-3.2c2.7-1.4,5.4-0.2,7,2.8
		c1.9,3.7,0.1,6.3-1.8,7.2c-0.6,0.4-2.2,0.9-4,0.1l3.1,6L177.1,236.5z M179.7,223.2c-1.1-1.9-2.7-3.1-4.8-2c-1.8,0.9-2.2,3-1.1,5.2
		c1.4,2.7,3.4,2.7,4.7,2C179.8,227.8,181.2,226,179.7,223.2z"/>
	<path class="st1" d="M157.5,238.2l0.2-13.3c0-2.2,0.1-3.5,2-4.1c0.7-0.2,1.3-0.2,1.7-0.2l0.5,1.5c-0.2,0-0.7,0-1.2,0.2
		c-1.3,0.4-1.3,1.2-1.3,2.8v1.4l6.8,9l-1.8,0.6l-5.2-7.2v9L157.5,238.2z"/>
	<path class="st1" d="M148.1,229.2c3.5-0.8,5.7,1.5,6.4,4.2c0.5,2.4,0.1,5.9-3.9,6.7c-3.4,0.8-5.7-1.5-6.3-4.4
		C143.7,232.7,145,229.9,148.1,229.2z M146.7,236.9c0.8,2,2.4,2.2,3.5,2c2.4-0.5,3-2.6,2.4-5c-0.5-2.2-1.8-3.8-4-3.3
		c-3,0.7-2.5,3.8-2.2,4.8C146.4,236,146.6,236.5,146.7,236.9z"/>
	<path class="st1" d="M142.5,241.5l-1.8,0.2l-0.7-6c-0.1-1.1-0.1-1.2-0.2-1.4c-0.4-1.3-1.4-1.5-2.2-1.4c-1.1,0.1-1.9,0.7-2.2,1.3
		c-0.6,0.8-0.5,1.7-0.4,3l0.6,5.3l-1.8,0.2l-1.2-10.6l1.8-0.2l0.2,1.7c0.2-0.5,1.2-2,3.4-2.2c1.5-0.1,2.4,0.5,2.7,0.8
		c0.8,0.8,0.9,1.7,1.2,3.5L142.5,241.5z"/>
	<path class="st1" d="M128.3,242.6v-1.9c-0.9,2-2.8,2.1-3.7,2.1V241c0.2,0,0.5,0,0.7,0c1.1,0,1.9-0.5,2.5-1.3
		c0.5-0.8,0.4-1.8,0.4-2.7l-0.1-5h1.8l0.2,10.6H128.3z"/>
	<path class="st1" d="M119.3,236.6c1.7,0.5,3.8,1.1,3.7,3.3c-0.1,1.9-1.8,3.1-4.2,3c-2-0.1-4.1-1.2-4.4-3.7l2-0.1
		c0,0.7,0,1.2,0.7,1.8s1.5,0.7,2,0.7c1.4,0.1,2.1-0.7,2.1-1.4c0-1.1-1.1-1.4-2.5-1.8l-0.9-0.4c-1.3-0.4-3.5-1.1-3.4-3.3
		c0.1-1.8,1.8-3.3,4.6-3.1c1.2,0.1,2.5,0.4,3.3,1.1c0.4,0.2,1.3,1.2,1.4,3l-2,0.2c0-0.5,0.1-1.4-0.7-2.1c-0.6-0.6-1.4-0.7-2.1-0.7
		c-1.5-0.1-2.5,0.5-2.6,1.7c-0.1,1.2,0.8,1.5,2.1,1.8L119.3,236.6z"/>
	<path class="st1" d="M102.8,233.3c0.4-0.7,1.8-3.4,5.3-2.8c3.1,0.5,4.8,3,4.2,6.5c-0.6,4-3.7,5.1-5.9,4.7c-1.9-0.4-3.8-1.7-4-4.5
		c-0.1-0.9,0.1-1.8,0.1-2.1l8,1.3c0.4-1.8-0.2-4.1-2.8-4.5c-1.5-0.2-2.6,0.7-3.2,2L102.8,233.3z M104.2,236.6
		c-0.2,2.8,1.7,3.5,2.5,3.7c1.5,0.2,3-0.7,3.5-2.7L104.2,236.6z"/>
	<path class="st1" d="M96,244.6l3.7-15.6l1.7,0.4L97.6,245L96,244.6z"/>
	<path class="st1" d="M91.8,238l-1.9-0.6l0.4-1.4l1.9,0.6l2.5-8.9l1.7,0.5l-2.5,8.9l1.8,0.5l-0.4,1.4l-1.8-0.5l-0.6,2.1
		c-0.2,0.8-0.9,3-3.5,2.1c-0.5-0.1-0.9-0.4-1.2-0.5l0.4-1.3c0.4,0.1,0.7,0.2,0.9,0.4c1.3,0.4,1.7-0.7,1.8-1.4L91.8,238z"/>
	<path class="st1" d="M88.3,228.4l0.8-2.4l2.1,0.7l-0.8,2.4L88.3,228.4z"/>
	<path class="st1" d="M58.2,226.2l7.7-11.8l1.8,1.2L60,227.4l4,2.6l-1.1,1.5l-9.8-6.4l1.1-1.5L58.2,226.2z"/>
	<path class="st1" d="M50.6,223.3l-1.4-1.2l4-5c-1.7,0.2-2.6-0.4-3.4-0.9c-1.8-1.5-1.8-3.1-1.3-4.1c0.2-0.7,0.7-1.2,1.4-2l3.9-4.8
		l1.4,1.2l-3.5,4.4c-0.8,1.1-1.4,1.8-1.5,2.5c-0.1,0.8,0.4,1.4,0.9,1.9c0.9,0.7,2.2,1.1,3.5,0c0.5-0.4,0.8-0.8,1.3-1.4l3.3-4
		l1.4,1.2L50.6,223.3z"/>
	<path class="st1" d="M39.7,213.8l1.4-1.5l1.3,1.2L41,215L39.7,213.8z M43.3,209.9l7.3-7.8l1.3,1.2l-7.3,7.8L43.3,209.9z"/>
	<path class="st1" d="M39.7,206.3l1.2-1.1c-2,0.5-3.2-0.7-3.7-1.2c-0.9-0.9-1.5-2.7-0.6-4.2c0.4-0.6,0.8-0.9,1.5-1.7l4.7-4.2
		l1.2,1.3l-4.5,4.1c-0.8,0.7-1.1,0.9-1.2,1.3c-0.6,0.9-0.2,2,0.5,2.7c0.6,0.6,1.2,0.9,2,0.9c1.1,0,1.8-0.5,2.4-1.1l4.5-4.1l1.2,1.3
		l-7.9,7.2L39.7,206.3z"/>
	<path class="st1" d="M33.4,192.3l2.2-7.8l1.3,1.8l-1.8,6.1l1.9,0.2l3-2.2l1.1,1.4l-12.7,9.6l-1.1-1.4l7.9-5.9l-6.1-0.7l-1.3-1.8
		L33.4,192.3z"/>
	<path class="st1" d="M23.5,176.2l-0.2,0.1c-0.9,0.5-2.6,1.4-1.5,3.5c1.1,2,2.6,1.2,3.1,0.9l0.8,1.8c-0.4,0.1-0.9,0.4-1.7,0.4
		c-1.3,0-2.6-0.7-3.4-2.4c-0.5-0.8-0.8-2.1-0.7-3.2c0.2-1.5,1.4-2,2.6-2.7l3.1-1.7c0.9-0.5,1.3-0.7,0.9-1.4
		c-0.1-0.2-0.2-0.4-0.4-0.5l1.4-0.7c0.2,0.2,0.5,0.5,0.7,0.9c0.4,0.7,0.6,1.7-0.5,2.4c0.7,0.2,2.2,0.6,3.3,2.4
		c0.9,1.9,0.6,3.8-0.9,4.6c-0.5,0.2-1.1,0.4-1.7,0.4c-1.1-0.1-2.2-0.8-4-3.4L23.5,176.2z M26.3,177.9c1.3,1.5,2.1,1.5,2.8,1.2
		c0.7-0.4,1.1-1.3,0.5-2.5c-0.6-1.1-1.5-1.8-2.7-1.8c-0.6,0-0.8,0.1-2.2,0.8C25,176.2,25.5,177,26.3,177.9z"/>
	<path class="st1" d="M11.6,173.5l6.3-2.5c-0.5-0.1-2.1-0.6-3.1-2.7c-0.8-2.1-0.4-5.2,3.4-6.6c2.5-0.9,5.7-0.9,7.1,2.5
		c0.8,2,0.1,3.3-0.2,4l1.3-0.5l0.7,1.7l-14.9,5.9L11.6,173.5z M24.1,164.8c-0.9-2.2-3.3-2.2-5.2-1.5c-2.5,0.9-3.1,2.8-2.5,4.5
		c0.6,1.4,2.1,2.8,5,1.7C24.3,168.4,24.8,166.4,24.1,164.8z"/>
	<path class="st1" d="M21.8,153.2c0.9,3.5-1.3,5.8-4,6.5c-2.2,0.6-5.9,0.4-7-3.7c-0.9-3.4,1.3-5.7,4.1-6.5
		C18,148.8,20.9,150,21.8,153.2z M14,152c-1.9,0.9-2.1,2.5-1.8,3.7c0.6,2.4,2.7,2.8,5.1,2.1c2.1-0.6,3.7-2,3.1-4.2
		c-0.8-3-3.9-2.2-5-2C14.9,151.6,14.4,151.9,14,152z"/>
	<path class="st1" d="M9.2,147.8L9,146.1l6-0.9c1.1-0.1,1.2-0.2,1.4-0.2c1.3-0.4,1.4-1.5,1.3-2.4c-0.1-1.1-0.7-1.9-1.4-2.2
		c-0.8-0.5-1.7-0.4-3-0.2L8,140.9l-0.2-1.8l10.5-1.7l0.2,1.8l-1.5,0.4c0.5,0.2,2.1,1.1,2.5,3.3c0.2,1.4-0.4,2.4-0.7,2.7
		c-0.7,0.9-1.7,1.1-3.4,1.3L9.2,147.8z"/>
	<path class="st1" d="M7.3,133.2l-0.1-1.9l1.5-0.1l0.1,1.9l6.1-0.5c1.3-0.1,1.8-0.1,1.8-0.9c0-0.4-0.2-0.8-0.4-1.2l1.5-0.1
		c0.1,0.4,0.2,1.1,0.4,1.8c0.1,2.1-0.8,2.1-2.2,2.2l-6.8,0.5l0.1,1.7l-1.5,0.1l-0.2-1.5l-3.3,0.2L4,133.4L7.3,133.2z"/>
	<path class="st1" d="M7.5,114l12.3,5.2c2.1,0.8,3.3,1.4,3.2,3.4c0,0.7-0.2,1.3-0.4,1.7l-1.7-0.1c0.1-0.2,0.2-0.6,0.2-1.2
		c0.1-1.3-0.7-1.7-2.1-2.2l-1.3-0.5L7,123.3l0.1-1.9l8.6-2.2l-8.3-3.3L7.5,114z"/>
	<path class="st1" d="M19.3,108.5c-0.6,3.7-3.5,4.7-6.3,4.4c-2.4-0.4-5.5-2-4.8-6.1c0.6-3.5,3.5-4.7,6.4-4.2
		C17.7,103.1,19.8,105.3,19.3,108.5z M12.7,104.4c-2.1,0.1-3,1.3-3.2,2.6c-0.4,2.4,1.3,3.7,3.8,4c2.2,0.4,4.1-0.2,4.5-2.6
		c0.5-3-2.6-3.7-3.7-3.9C13.6,104.4,13.1,104.4,12.7,104.4z"/>
	<path class="st1" d="M9.9,98.7l0.5-1.8l5.9,1.5c1.1,0.2,1.2,0.4,1.4,0.4c1.4,0.2,2-0.8,2.1-1.7c0.2-1.1,0.1-2-0.4-2.6
		c-0.6-0.8-1.4-1.1-2.6-1.4l-5.2-1.4l0.6-1.5l10.3,2.7l-0.5,1.8l-1.5-0.5c0.4,0.5,1.4,1.9,0.9,4c-0.4,1.4-1.3,2-1.8,2.2
		c-1.1,0.5-1.9,0.2-3.7-0.2L9.9,98.7z"/>
	<path class="st1" d="M14,85.2l1.8,0.7c-1.5-1.7-0.9-3.4-0.7-4.1l1.8,0.7c-0.1,0.2-0.2,0.4-0.4,0.7c-0.4,0.9-0.2,2,0.4,2.7
		c0.6,0.7,1.4,1.1,2.4,1.3l4.8,1.7l-0.6,1.7l-10-3.7L14,85.2z"/>
	<path class="st1" d="M25.6,73.4c-1.2,1.3-2.6,3-4.5,1.9c-1.8-0.9-2-3-0.9-5.1c0.9-1.8,2.8-3.3,5.2-2.5l-0.7,1.9
		c-0.6-0.2-1.1-0.5-1.9-0.1c-0.8,0.4-1.3,1.1-1.5,1.5c-0.7,1.3-0.2,2.2,0.4,2.6c0.9,0.5,1.8-0.4,2.7-1.5l0.7-0.8
		c0.8-0.9,2.4-2.7,4.4-1.7c1.5,0.8,2.2,3,0.9,5.5c-0.6,1.1-1.3,2-2.2,2.5c-0.4,0.2-1.7,0.7-3.3,0l0.7-2c0.4,0.2,1.2,0.7,2.2,0.2
		c0.8-0.4,1.2-0.9,1.5-1.7c0.7-1.4,0.6-2.5-0.4-3.1c-1.1-0.6-1.8,0.1-2.5,1.2L25.6,73.4z"/>
	<path class="st1" d="M30.1,62.4l8-0.6l-1.2,1.9L30.6,64l0.5,1.8l3.2,2l-1.1,1.5l-13.3-8.7l1.1-1.5l8.3,5.4l-1.5-5.9l1.2-1.9
		L30.1,62.4z"/>
	<path class="st1" d="M27.3,50.1l1.7,1.3l-1.1,1.4l-1.7-1.3L27.3,50.1z M31.4,53.3l8.5,6.4l-1.1,1.4l-8.5-6.4L31.4,53.3z"/>
	<path class="st1" d="M34.7,49.2l1.2,1.1c-0.7-1.9,0.4-3.3,0.8-3.8c0.9-1.1,2.5-1.8,4.1-1.1c0.6,0.2,1.1,0.7,1.8,1.3l4.7,4.2
		l-1.2,1.3l-4.6-4c-0.8-0.7-1.1-0.9-1.4-1.1c-0.9-0.5-2,0-2.6,0.7c-0.5,0.6-0.8,1.3-0.7,2c0.1,1.1,0.7,1.7,1.3,2.1l4.6,4l-1.2,1.3
		l-8-7.1L34.7,49.2z"/>
	<path class="st1" d="M54.3,36.2l-0.1-0.2c-0.7-0.8-1.9-2.2-3.8-0.7c-1.8,1.4-0.7,2.7-0.4,3.2l-1.5,1.2c-0.2-0.4-0.6-0.8-0.7-1.5
		c-0.2-1.3,0.2-2.7,1.7-3.8c0.7-0.6,1.9-1.3,3-1.3c1.5,0,2.2,0.9,3.2,2l2.2,2.7c0.7,0.8,0.9,1.2,1.5,0.7c0.1-0.1,0.4-0.4,0.4-0.5
		l0.9,1.2c-0.2,0.2-0.4,0.5-0.7,0.8c-0.6,0.6-1.4,0.8-2.5,0c0,0.8-0.1,2.4-1.8,3.7c-1.7,1.3-3.5,1.3-4.7,0c-0.4-0.5-0.6-0.9-0.7-1.5
		c-0.1-1.1,0.4-2.4,2.6-4.6L54.3,36.2z M53.1,39.1c-1.3,1.7-1.1,2.4-0.6,3c0.6,0.7,1.5,0.8,2.6-0.1c0.9-0.8,1.4-1.9,1.2-3.1
		c-0.1-0.6-0.4-0.8-1.3-2C54.5,37.5,53.9,38.2,53.1,39.1z"/>
	<path class="st1" d="M57.5,28.4l0.8,1.3c-0.1-2,1.2-3.1,1.8-3.4c1.2-0.7,2.8-1.1,4.2,0.1c0.5,0.5,0.8,0.9,1.4,1.8l3.5,5.3l-1.5,0.8
		l-3.3-5.1c-0.6-0.9-0.8-1.2-1.1-1.4c-0.8-0.7-1.9-0.5-2.7,0c-0.7,0.5-1.1,1.1-1.3,1.8c-0.2,1.1,0.2,1.8,0.7,2.5l3.4,5.1l-1.7,1.1
		l-5.9-8.9L57.5,28.4z"/>
	<path class="st1" d="M72.8,13.3l7.3,14.2l-1.7,0.8l-0.6-1.2c-0.1,0.7-0.5,2.1-2.5,3.2c-2.7,1.4-5.4,0.2-7-2.8
		c-1.9-3.7-0.1-6.3,1.8-7.2c0.6-0.4,2.2-0.9,4.1-0.1l-3.1-6L72.8,13.3z M70.2,26.7c1.1,2,2.7,3.1,4.8,2c1.8-0.9,2.2-3,1.1-5.2
		c-1.4-2.7-3.4-2.7-4.7-2C70.1,22.1,68.7,23.8,70.2,26.7z"/>
	<path class="st1" d="M92.3,11.7l-0.2,13.3c0,2.2-0.2,3.5-2.1,4.1c-0.7,0.2-1.3,0.2-1.7,0.2L87.8,28c0.2,0,0.7,0,1.2-0.2
		c1.3-0.4,1.3-1.2,1.3-2.8v-1.4l-6.8-9.1l1.8-0.6l5.2,7.2v-9L92.3,11.7z"/>
	<path class="st1" d="M101.6,20.7c-3.5,0.8-5.7-1.5-6.4-4.2c-0.5-2.4-0.1-5.9,3.9-6.7c3.4-0.7,5.7,1.5,6.3,4.4
		C106.2,17.3,104.8,20,101.6,20.7z M103.2,13.1c-0.8-2-2.4-2.2-3.5-2c-2.4,0.5-3,2.6-2.4,5c0.5,2.2,1.8,3.8,4,3.3
		c3-0.6,2.5-3.8,2.2-4.8C103.5,13.9,103.3,13.4,103.2,13.1z"/>
	<path class="st1" d="M107.4,8.4l1.8-0.2l0.7,6c0.1,1.1,0.1,1.2,0.2,1.4c0.4,1.3,1.4,1.5,2.2,1.4c1.1-0.1,1.9-0.7,2.2-1.3
		c0.6-0.8,0.5-1.7,0.4-3l-0.6-5.3h1.8l1.2,10.6l-1.8,0.2l-0.2-1.7c-0.2,0.5-1.2,2-3.4,2.2c-1.5,0.1-2.4-0.5-2.7-0.8
		c-0.8-0.8-0.9-1.8-1.2-3.5L107.4,8.4z"/>
	<path class="st1" d="M121.6,7.2v1.9c0.9-2,2.8-2.1,3.7-2.1v1.9c-0.2,0-0.5,0-0.7,0c-1.1,0-1.9,0.5-2.5,1.3
		c-0.5,0.8-0.4,1.8-0.4,2.7l0.1,5H120l-0.2-10.6H121.6z"/>
	<path class="st1" d="M130.6,13.4c-1.7-0.5-3.8-1.1-3.7-3.3c0.1-1.9,1.8-3.1,4.2-3c2,0.1,4.1,1.2,4.4,3.8l-2,0.1
		c0-0.7,0-1.2-0.7-1.8c-0.7-0.6-1.3-0.7-1.9-0.8c-1.4-0.1-2.1,0.7-2.1,1.4c0,1.1,1.1,1.4,2.5,1.8l0.9,0.4c1.3,0.4,3.5,1.1,3.4,3.3
		c-0.1,1.8-1.8,3.3-4.6,3.1c-1.2-0.1-2.5-0.4-3.3-1.1c-0.4-0.2-1.3-1.2-1.4-3l2-0.2c0,0.5-0.1,1.4,0.7,2.1c0.6,0.6,1.4,0.7,2.1,0.7
		c1.5,0.1,2.6-0.5,2.6-1.7c0.1-1.2-0.8-1.5-2.1-1.8L130.6,13.4z"/>
	<path class="st1" d="M147.1,16.8c-0.4,0.7-1.8,3.4-5.3,2.8c-3.1-0.5-4.8-3-4.2-6.5c0.6-4,3.8-5.1,5.9-4.7c1.9,0.4,3.8,1.7,4,4.5
		c0.1,0.9-0.1,1.8-0.1,2.1l-8-1.3c-0.4,1.8,0.2,4.1,2.7,4.5c1.5,0.2,2.6-0.7,3.2-2L147.1,16.8z M145.5,13.4c0.2-2.8-1.7-3.5-2.5-3.7
		c-1.5-0.2-3,0.7-3.5,2.7L145.5,13.4z"/>
	<path class="st1" d="M153.9,5.4l-3.7,15.6l-1.7-0.4L152.3,5L153.9,5.4z"/>
	<path class="st1" d="M158.1,12l1.9,0.6l-0.4,1.4l-1.9-0.6l-2.5,8.9l-1.7-0.5l2.5-8.9l-1.8-0.5l0.4-1.4l1.8,0.5l0.6-2.1
		c0.2-0.8,0.9-3,3.5-2.1c0.5,0.1,0.9,0.4,1.2,0.5L161.4,9c-0.4-0.1-0.7-0.2-0.9-0.4c-1.3-0.4-1.7,0.6-1.8,1.4L158.1,12z"/>
	<path class="st1" d="M161.5,21.6l-0.8,2.4l-2.1-0.7l0.8-2.4L161.5,21.6z"/>
</g>
<path id="SVGID_x5F_1_x5F_" class="st2" d="M228.1,125c0,56.9-46.2,103.1-103.1,103.1S21.9,181.9,21.9,125S68.1,21.9,125,21.9
	S228.1,68.1,228.1,125z"/>
<text><textPath  xlink:href="#SVGID_x5F_1_x5F_" startOffset="108.9518%">
<tspan  style="font-family:'Avenir-Medium'; font-size:21px; letter-spacing:-3;">Everything will be OK.  Everything will be OK.  Everything will be OK.</tspan></textPath>
</text>
</svg>
